<?xml version="1.0" encoding="utf-8" standalone="no"?>
<!DOCTYPE svg PUBLIC "-//W3C//DTD SVG 1.1//EN"
  "http://www.w3.org/Graphics/SVG/1.1/DTD/svg11.dtd">
<svg xmlns:xlink="http://www.w3.org/1999/xlink" width="460.8pt" height="345.6pt" viewBox="0 0 460.8 345.6" xmlns="http://www.w3.org/2000/svg" version="1.1">
 <metadata>
  <rdf:RDF xmlns:dc="http://purl.org/dc/elements/1.1/" xmlns:cc="http://creativecommons.org/ns#" xmlns:rdf="http://www.w3.org/1999/02/22-rdf-syntax-ns#">
   <cc:Work>
    <dc:type rdf:resource="http://purl.org/dc/dcmitype/StillImage"/>
    <dc:date>2025-04-11T14:10:01.334629</dc:date>
    <dc:format>image/svg+xml</dc:format>
    <dc:creator>
     <cc:Agent>
      <dc:title>Matplotlib v3.10.1, https://matplotlib.org/</dc:title>
     </cc:Agent>
    </dc:creator>
   </cc:Work>
  </rdf:RDF>
 </metadata>
 <defs>
  <style type="text/css">*{stroke-linejoin: round; stroke-linecap: butt}</style>
 </defs>
 <g id="figure_1">
  <g id="patch_1">
   <path d="M 0 345.6 
L 460.8 345.6 
L 460.8 0 
L 0 0 
z
" style="fill: #ffffff"/>
  </g>
  <g id="axes_1">
   <g id="patch_2">
    <path d="M 10.8 304.981683 
L 450 304.981683 
L 450 10.8 
L 10.8 10.8 
z
" style="fill: #ffffff"/>
   </g>
   <g id="matplotlib.axis_1">
    <g id="xtick_1">
     <g id="line2d_1">
      <defs>
       <path id="m99cd07a4e1" d="M 0 0 
L 0 3.5 
" style="stroke: #000000; stroke-width: 0.8"/>
      </defs>
      <g>
       <use xlink:href="#m99cd07a4e1" x="30.763636" y="304.981683" style="stroke: #000000; stroke-width: 0.8"/>
      </g>
     </g>
     <g id="text_1">
      <!-- $\mathdefault{−10.0}$ -->
      <g transform="translate(18.033557 318.900182) scale(0.1 -0.1)">
       <defs>
        <path id="CMSY10-0" d="M 4218 1472 
C 4326 1472 4442 1472 4442 1600 
C 4442 1728 4326 1728 4218 1728 
L 755 1728 
C 646 1728 531 1728 531 1600 
C 531 1472 646 1472 755 1472 
L 4218 1472 
z
" transform="scale(0.015625)"/>
        <path id="CMR17-31" d="M 1702 4058 
C 1702 4192 1696 4192 1606 4192 
C 1357 3916 979 3827 621 3827 
C 602 3827 570 3827 563 3808 
C 557 3795 557 3782 557 3648 
C 755 3648 1088 3686 1344 3839 
L 1344 461 
C 1344 236 1331 160 781 160 
L 589 160 
L 589 0 
C 896 0 1216 0 1523 0 
C 1830 0 2150 0 2458 0 
L 2458 160 
L 2266 160 
C 1715 160 1702 230 1702 458 
L 1702 4058 
z
" transform="scale(0.015625)"/>
        <path id="CMR17-30" d="M 2688 2025 
C 2688 2416 2682 3080 2413 3591 
C 2176 4039 1798 4198 1466 4198 
C 1158 4198 768 4058 525 3597 
C 269 3118 243 2524 243 2025 
C 243 1661 250 1106 448 619 
C 723 -39 1216 -128 1466 -128 
C 1760 -128 2208 -7 2470 600 
C 2662 1042 2688 1559 2688 2025 
z
M 1466 -26 
C 1056 -26 813 325 723 812 
C 653 1188 653 1738 653 2096 
C 653 2588 653 2997 736 3387 
C 858 3929 1216 4096 1466 4096 
C 1728 4096 2067 3923 2189 3400 
C 2272 3036 2278 2607 2278 2096 
C 2278 1680 2278 1169 2202 792 
C 2067 95 1690 -26 1466 -26 
z
" transform="scale(0.015625)"/>
        <path id="CMMI12-3a" d="M 1178 307 
C 1178 492 1024 619 870 619 
C 685 619 557 466 557 313 
C 557 128 710 0 864 0 
C 1050 0 1178 153 1178 307 
z
" transform="scale(0.015625)"/>
       </defs>
       <use xlink:href="#CMSY10-0" transform="scale(0.996264)"/>
       <use xlink:href="#CMR17-31" transform="translate(77.487468 0) scale(0.996264)"/>
       <use xlink:href="#CMR17-30" transform="translate(123.177945 0) scale(0.996264)"/>
       <use xlink:href="#CMMI12-3a" transform="translate(168.868422 0) scale(0.996264)"/>
       <use xlink:href="#CMR17-30" transform="translate(195.965599 0) scale(0.996264)"/>
      </g>
     </g>
    </g>
    <g id="xtick_2">
     <g id="line2d_2">
      <g>
       <use xlink:href="#m99cd07a4e1" x="80.672727" y="304.981683" style="stroke: #000000; stroke-width: 0.8"/>
      </g>
     </g>
     <g id="text_2">
      <!-- $\mathdefault{−7.5}$ -->
      <g transform="translate(70.433316 318.900182) scale(0.1 -0.1)">
       <defs>
        <path id="CMR17-37" d="M 2886 3941 
L 2886 4081 
L 1382 4081 
C 634 4081 621 4165 595 4288 
L 480 4288 
L 294 3094 
L 410 3094 
C 429 3215 474 3540 550 3661 
C 589 3712 1062 3712 1171 3712 
L 2579 3712 
L 1869 2661 
C 1395 1954 1069 999 1069 165 
C 1069 89 1069 -128 1299 -128 
C 1530 -128 1530 89 1530 171 
L 1530 465 
C 1530 1508 1709 2196 2003 2636 
L 2886 3941 
z
" transform="scale(0.015625)"/>
        <path id="CMR17-35" d="M 730 3692 
C 794 3666 1056 3584 1325 3584 
C 1920 3584 2246 3911 2432 4100 
C 2432 4157 2432 4192 2394 4192 
C 2387 4192 2374 4192 2323 4163 
C 2099 4058 1837 3973 1517 3973 
C 1325 3973 1037 3999 723 4139 
C 653 4171 640 4171 634 4171 
C 602 4171 595 4164 595 4037 
L 595 2203 
C 595 2089 595 2057 659 2057 
C 691 2057 704 2070 736 2114 
C 941 2401 1222 2522 1542 2522 
C 1766 2522 2246 2382 2246 1289 
C 2246 1085 2246 715 2054 421 
C 1894 159 1645 25 1370 25 
C 947 25 518 320 403 814 
C 429 807 480 795 506 795 
C 589 795 749 840 749 1038 
C 749 1210 627 1280 506 1280 
C 358 1280 262 1190 262 1011 
C 262 454 704 -128 1382 -128 
C 2042 -128 2669 440 2669 1264 
C 2669 2030 2170 2624 1549 2624 
C 1222 2624 947 2503 730 2274 
L 730 3692 
z
" transform="scale(0.015625)"/>
       </defs>
       <use xlink:href="#CMSY10-0" transform="scale(0.996264)"/>
       <use xlink:href="#CMR17-37" transform="translate(77.487468 0) scale(0.996264)"/>
       <use xlink:href="#CMMI12-3a" transform="translate(123.177945 0) scale(0.996264)"/>
       <use xlink:href="#CMR17-35" transform="translate(150.275122 0) scale(0.996264)"/>
      </g>
     </g>
    </g>
    <g id="xtick_3">
     <g id="line2d_3">
      <g>
       <use xlink:href="#m99cd07a4e1" x="130.581818" y="304.981683" style="stroke: #000000; stroke-width: 0.8"/>
      </g>
     </g>
     <g id="text_3">
      <!-- $\mathdefault{−5.0}$ -->
      <g transform="translate(120.342407 318.900182) scale(0.1 -0.1)">
       <use xlink:href="#CMSY10-0" transform="scale(0.996264)"/>
       <use xlink:href="#CMR17-35" transform="translate(77.487468 0) scale(0.996264)"/>
       <use xlink:href="#CMMI12-3a" transform="translate(123.177945 0) scale(0.996264)"/>
       <use xlink:href="#CMR17-30" transform="translate(150.275122 0) scale(0.996264)"/>
      </g>
     </g>
    </g>
    <g id="xtick_4">
     <g id="line2d_4">
      <g>
       <use xlink:href="#m99cd07a4e1" x="180.490909" y="304.981683" style="stroke: #000000; stroke-width: 0.8"/>
      </g>
     </g>
     <g id="text_4">
      <!-- $\mathdefault{−2.5}$ -->
      <g transform="translate(170.251498 318.900182) scale(0.1 -0.1)">
       <defs>
        <path id="CMR17-32" d="M 2669 989 
L 2554 989 
C 2490 536 2438 459 2413 420 
C 2381 369 1920 369 1830 369 
L 602 369 
C 832 619 1280 1072 1824 1597 
C 2214 1967 2669 2402 2669 3035 
C 2669 3790 2067 4224 1395 4224 
C 691 4224 262 3604 262 3030 
C 262 2780 448 2748 525 2748 
C 589 2748 781 2787 781 3010 
C 781 3207 614 3264 525 3264 
C 486 3264 448 3258 422 3245 
C 544 3790 915 4058 1306 4058 
C 1862 4058 2227 3617 2227 3035 
C 2227 2479 1901 2000 1536 1584 
L 262 146 
L 262 0 
L 2515 0 
L 2669 989 
z
" transform="scale(0.015625)"/>
       </defs>
       <use xlink:href="#CMSY10-0" transform="scale(0.996264)"/>
       <use xlink:href="#CMR17-32" transform="translate(77.487468 0) scale(0.996264)"/>
       <use xlink:href="#CMMI12-3a" transform="translate(123.177945 0) scale(0.996264)"/>
       <use xlink:href="#CMR17-35" transform="translate(150.275122 0) scale(0.996264)"/>
      </g>
     </g>
    </g>
    <g id="xtick_5">
     <g id="line2d_5">
      <g>
       <use xlink:href="#m99cd07a4e1" x="230.4" y="304.981683" style="stroke: #000000; stroke-width: 0.8"/>
      </g>
     </g>
     <g id="text_5">
      <!-- $\mathdefault{0.0}$ -->
      <g transform="translate(224.034961 318.900182) scale(0.1 -0.1)">
       <use xlink:href="#CMR17-30" transform="scale(0.996264)"/>
       <use xlink:href="#CMMI12-3a" transform="translate(45.690477 0) scale(0.996264)"/>
       <use xlink:href="#CMR17-30" transform="translate(72.787654 0) scale(0.996264)"/>
      </g>
     </g>
    </g>
    <g id="xtick_6">
     <g id="line2d_6">
      <g>
       <use xlink:href="#m99cd07a4e1" x="280.309091" y="304.981683" style="stroke: #000000; stroke-width: 0.8"/>
      </g>
     </g>
     <g id="text_6">
      <!-- $\mathdefault{2.5}$ -->
      <g transform="translate(273.944051 318.900182) scale(0.1 -0.1)">
       <use xlink:href="#CMR17-32" transform="scale(0.996264)"/>
       <use xlink:href="#CMMI12-3a" transform="translate(45.690477 0) scale(0.996264)"/>
       <use xlink:href="#CMR17-35" transform="translate(72.787654 0) scale(0.996264)"/>
      </g>
     </g>
    </g>
    <g id="xtick_7">
     <g id="line2d_7">
      <g>
       <use xlink:href="#m99cd07a4e1" x="330.218182" y="304.981683" style="stroke: #000000; stroke-width: 0.8"/>
      </g>
     </g>
     <g id="text_7">
      <!-- $\mathdefault{5.0}$ -->
      <g transform="translate(323.853142 318.900182) scale(0.1 -0.1)">
       <use xlink:href="#CMR17-35" transform="scale(0.996264)"/>
       <use xlink:href="#CMMI12-3a" transform="translate(45.690477 0) scale(0.996264)"/>
       <use xlink:href="#CMR17-30" transform="translate(72.787654 0) scale(0.996264)"/>
      </g>
     </g>
    </g>
    <g id="xtick_8">
     <g id="line2d_8">
      <g>
       <use xlink:href="#m99cd07a4e1" x="380.127273" y="304.981683" style="stroke: #000000; stroke-width: 0.8"/>
      </g>
     </g>
     <g id="text_8">
      <!-- $\mathdefault{7.5}$ -->
      <g transform="translate(373.762233 318.900182) scale(0.1 -0.1)">
       <use xlink:href="#CMR17-37" transform="scale(0.996264)"/>
       <use xlink:href="#CMMI12-3a" transform="translate(45.690477 0) scale(0.996264)"/>
       <use xlink:href="#CMR17-35" transform="translate(72.787654 0) scale(0.996264)"/>
      </g>
     </g>
    </g>
    <g id="xtick_9">
     <g id="line2d_9">
      <g>
       <use xlink:href="#m99cd07a4e1" x="430.036364" y="304.981683" style="stroke: #000000; stroke-width: 0.8"/>
      </g>
     </g>
     <g id="text_9">
      <!-- $\mathdefault{10.0}$ -->
      <g transform="translate(421.180657 318.900182) scale(0.1 -0.1)">
       <use xlink:href="#CMR17-31" transform="scale(0.996264)"/>
       <use xlink:href="#CMR17-30" transform="translate(45.690477 0) scale(0.996264)"/>
       <use xlink:href="#CMMI12-3a" transform="translate(91.380954 0) scale(0.996264)"/>
       <use xlink:href="#CMR17-30" transform="translate(118.478131 0) scale(0.996264)"/>
      </g>
     </g>
    </g>
    <g id="text_10">
     <!-- exposure time error [ms] -->
     <g transform="translate(179.728841 332.30934) scale(0.1 -0.1)">
      <defs>
       <path id="CMSS17-65" d="M 2502 1377 
C 2502 1590 2490 2003 2285 2345 
C 2061 2713 1696 2816 1421 2816 
C 755 2816 192 2188 192 1375 
C 192 582 774 -64 1510 -64 
C 1798 -64 2150 19 2470 248 
C 2470 274 2458 414 2451 420 
C 2451 433 2432 630 2432 656 
C 2125 407 1773 325 1517 325 
C 1107 325 666 667 646 1377 
L 2502 1377 
z
M 698 1728 
C 781 2084 1062 2421 1421 2421 
C 1517 2421 1965 2421 2080 1728 
L 698 1728 
z
" transform="scale(0.015625)"/>
       <path id="CMSS17-78" d="M 1587 1414 
L 2656 2739 
L 2099 2739 
L 1363 1777 
L 602 2739 
L 32 2739 
L 1139 1414 
L 0 0 
L 563 0 
L 1363 1121 
L 2195 0 
L 2758 0 
L 1587 1414 
z
" transform="scale(0.015625)"/>
       <path id="CMSS17-70" d="M 966 333 
C 1178 129 1466 -5 1773 -5 
C 2368 -5 2880 603 2880 1412 
C 2880 2159 2496 2816 1946 2816 
C 1626 2816 1242 2702 954 2472 
L 954 2765 
L 480 2765 
L 480 -1216 
L 966 -1216 
L 966 333 
z
M 966 2100 
C 1018 2176 1235 2415 1587 2415 
C 2035 2415 2394 1960 2394 1412 
C 2394 787 1958 384 1530 384 
C 1402 384 1267 415 1139 523 
C 966 674 966 768 966 857 
L 966 2100 
z
" transform="scale(0.015625)"/>
       <path id="CMSS17-6f" d="M 2829 1356 
C 2829 2176 2221 2816 1504 2816 
C 768 2816 173 2157 173 1356 
C 173 544 787 -64 1498 -64 
C 2227 -64 2829 563 2829 1356 
z
M 1504 337 
C 1050 337 659 709 659 1408 
C 659 2151 1114 2427 1498 2427 
C 1914 2427 2342 2126 2342 1408 
C 2342 683 1926 337 1504 337 
z
" transform="scale(0.015625)"/>
       <path id="CMSS17-73" d="M 2061 2627 
C 1683 2807 1389 2807 1197 2807 
C 742 2807 198 2648 198 2003 
C 198 1359 902 1218 1094 1179 
C 1389 1122 1715 1058 1715 740 
C 1715 337 1254 337 1171 337 
C 915 337 563 407 243 638 
L 166 210 
C 531 0 883 -64 1178 -64 
C 1965 -64 2163 416 2163 781 
C 2163 1094 1984 1305 1862 1401 
C 1651 1568 1574 1587 1050 1696 
C 960 1709 646 1779 646 2066 
C 646 2432 1050 2432 1139 2432 
C 1555 2432 1811 2303 1984 2208 
L 2061 2627 
z
" transform="scale(0.015625)"/>
       <path id="CMSS17-75" d="M 2618 2739 
L 2131 2739 
L 2131 972 
C 2131 498 1786 306 1421 306 
C 998 306 960 447 960 709 
L 960 2739 
L 474 2739 
L 474 678 
C 474 179 646 -64 1088 -64 
C 1306 -64 1798 -13 2144 306 
L 2144 0 
L 2618 0 
L 2618 2739 
z
" transform="scale(0.015625)"/>
       <path id="CMSS17-72" d="M 954 1363 
C 954 1965 1395 2368 1958 2368 
L 1958 2789 
C 1549 2789 1165 2585 934 2253 
L 934 2758 
L 480 2758 
L 480 0 
L 954 0 
L 954 1363 
z
" transform="scale(0.015625)"/>
       <path id="CMSS17-74" d="M 1069 2368 
L 1901 2368 
L 1901 2737 
L 1069 2737 
L 1069 3520 
L 614 3520 
L 614 2737 
L 109 2737 
L 109 2368 
L 602 2368 
L 602 749 
C 602 384 685 -64 1107 -64 
C 1427 -64 1722 25 2003 172 
L 1901 548 
C 1747 414 1562 337 1363 337 
C 1082 337 1069 696 1069 856 
L 1069 2368 
z
" transform="scale(0.015625)"/>
       <path id="CMSS17-69" d="M 979 4183 
L 442 4183 
L 442 3648 
L 979 3648 
L 979 4183 
z
M 947 2739 
L 474 2739 
L 474 0 
L 947 0 
L 947 2739 
z
" transform="scale(0.015625)"/>
       <path id="CMSS17-6d" d="M 4288 1877 
C 4288 2308 4179 2816 3462 2816 
C 2982 2816 2694 2516 2566 2331 
C 2451 2670 2182 2816 1798 2816 
C 1363 2816 1088 2568 941 2389 
L 941 2758 
L 474 2758 
L 474 0 
L 960 0 
L 960 1559 
C 960 1939 1101 2428 1555 2428 
C 2138 2428 2138 2016 2138 1829 
L 2138 0 
L 2624 0 
L 2624 1559 
C 2624 1939 2765 2428 3219 2428 
C 3802 2428 3802 2016 3802 1829 
L 3802 0 
L 4288 0 
L 4288 1877 
z
" transform="scale(0.015625)"/>
       <path id="CMSS17-5b" d="M 1613 -1600 
L 1613 -1212 
L 1062 -1212 
L 1062 4352 
L 1613 4352 
L 1613 4741 
L 595 4741 
L 595 -1600 
L 1613 -1600 
z
" transform="scale(0.015625)"/>
       <path id="CMSS17-5d" d="M 1146 4741 
L 128 4741 
L 128 4352 
L 678 4352 
L 678 -1212 
L 128 -1212 
L 128 -1600 
L 1146 -1600 
L 1146 4741 
z
" transform="scale(0.015625)"/>
      </defs>
      <use xlink:href="#CMSS17-65" transform="scale(0.996264)"/>
      <use xlink:href="#CMSS17-78" transform="translate(41.638822 0) scale(0.996264)"/>
      <use xlink:href="#CMSS17-70" transform="translate(84.638964 0) scale(0.996264)"/>
      <use xlink:href="#CMSS17-6f" transform="translate(135.446346 0) scale(0.996264)"/>
      <use xlink:href="#CMSS17-73" transform="translate(182.289969 0) scale(0.996264)"/>
      <use xlink:href="#CMSS17-75" transform="translate(218.203511 0) scale(0.996264)"/>
      <use xlink:href="#CMSS17-72" transform="translate(266.408454 0) scale(0.996264)"/>
      <use xlink:href="#CMSS17-65" transform="translate(298.318227 0) scale(0.996264)"/>
      <use xlink:href="#CMSS17-74" transform="translate(371.186162 0) scale(0.996264)"/>
      <use xlink:href="#CMSS17-69" transform="translate(405.017728 0) scale(0.996264)"/>
      <use xlink:href="#CMSS17-6d" transform="translate(427.198451 0) scale(0.996264)"/>
      <use xlink:href="#CMSS17-65" transform="translate(501.427706 0) scale(0.996264)"/>
      <use xlink:href="#CMSS17-65" transform="translate(574.295641 0) scale(0.996264)"/>
      <use xlink:href="#CMSS17-72" transform="translate(615.934463 0) scale(0.996264)"/>
      <use xlink:href="#CMSS17-72" transform="translate(647.844235 0) scale(0.996264)"/>
      <use xlink:href="#CMSS17-6f" transform="translate(679.754008 0) scale(0.996264)"/>
      <use xlink:href="#CMSS17-72" transform="translate(723.995177 0) scale(0.996264)"/>
      <use xlink:href="#CMSS17-5b" transform="translate(787.134063 0) scale(0.996264)"/>
      <use xlink:href="#CMSS17-6d" transform="translate(814.319501 0) scale(0.996264)"/>
      <use xlink:href="#CMSS17-73" transform="translate(888.548756 0) scale(0.996264)"/>
      <use xlink:href="#CMSS17-5d" transform="translate(924.462298 0) scale(0.996264)"/>
     </g>
    </g>
   </g>
   <g id="matplotlib.axis_2"/>
   <g id="patch_3">
    <path d="M 30.763636 304.981683 
L 30.763636 304.981683 
L 44.072727 304.981683 
L 44.072727 304.981683 
L 57.381818 304.981683 
L 57.381818 304.981683 
L 70.690909 304.981683 
L 70.690909 304.981683 
L 84 304.981683 
L 84 304.981683 
L 97.309091 304.981683 
L 97.309091 304.981683 
L 110.618182 304.981683 
L 110.618182 304.981683 
L 123.927273 304.981683 
L 123.927273 304.981683 
L 137.236364 304.981683 
L 137.236364 304.981683 
L 150.545455 304.981683 
L 150.545455 304.981683 
L 163.854545 304.981683 
L 163.854545 304.981683 
L 177.163636 304.981683 
L 177.163636 300.93294 
L 190.472727 300.93294 
L 190.472727 282.308721 
L 203.781818 282.308721 
L 203.781818 187.568129 
L 217.090909 187.568129 
L 217.090909 24.808652 
L 230.4 24.808652 
L 230.4 56.388849 
L 243.709091 56.388849 
L 243.709091 205.3826 
L 257.018182 205.3826 
L 257.018182 279.879475 
L 270.327273 279.879475 
L 270.327273 296.074448 
L 283.636364 296.074448 
L 283.636364 302.552437 
L 296.945455 302.552437 
L 296.945455 304.981683 
L 310.254545 304.981683 
L 310.254545 304.981683 
L 323.563636 304.981683 
L 323.563636 304.171935 
L 336.872727 304.171935 
L 336.872727 304.981683 
L 350.181818 304.981683 
L 350.181818 304.981683 
L 363.490909 304.981683 
L 363.490909 304.981683 
L 376.8 304.981683 
L 376.8 304.981683 
L 390.109091 304.981683 
L 390.109091 304.981683 
L 403.418182 304.981683 
L 403.418182 304.981683 
L 416.727273 304.981683 
L 416.727273 304.981683 
L 430.036364 304.981683 
L 430.036364 304.981683 
" clip-path="url(#pdb700ecb53)" style="fill: none; stroke: #1b9e77; stroke-linejoin: miter"/>
   </g>
   <g id="patch_4">
    <path d="M 30.763636 304.981683 
L 30.763636 304.118412 
L 44.072727 304.118412 
L 44.072727 303.25514 
L 57.381818 303.25514 
L 57.381818 304.981683 
L 70.690909 304.981683 
L 70.690909 304.981683 
L 84 304.981683 
L 84 304.981683 
L 97.309091 304.981683 
L 97.309091 304.118412 
L 110.618182 304.118412 
L 110.618182 304.118412 
L 123.927273 304.118412 
L 123.927273 304.981683 
L 137.236364 304.981683 
L 137.236364 303.25514 
L 150.545455 303.25514 
L 150.545455 300.665326 
L 163.854545 300.665326 
L 163.854545 298.075511 
L 177.163636 298.075511 
L 177.163636 288.579525 
L 190.472727 288.579525 
L 190.472727 269.587553 
L 203.781818 269.587553 
L 203.781818 229.013793 
L 217.090909 229.013793 
L 217.090909 222.107621 
L 230.4 222.107621 
L 230.4 186.713491 
L 243.709091 186.713491 
L 243.709091 184.986948 
L 257.018182 184.986948 
L 257.018182 193.619663 
L 270.327273 193.619663 
L 270.327273 235.056693 
L 283.636364 235.056693 
L 283.636364 244.55268 
L 296.945455 244.55268 
L 296.945455 268.724281 
L 310.254545 268.724281 
L 310.254545 277.356996 
L 323.563636 277.356996 
L 323.563636 285.126439 
L 336.872727 285.126439 
L 336.872727 294.622425 
L 350.181818 294.622425 
L 350.181818 299.802054 
L 363.490909 299.802054 
L 363.490909 302.391869 
L 376.8 302.391869 
L 376.8 304.981683 
L 390.109091 304.981683 
L 390.109091 304.981683 
L 403.418182 304.981683 
L 403.418182 304.981683 
L 416.727273 304.981683 
L 416.727273 304.981683 
L 430.036364 304.981683 
L 430.036364 304.981683 
" clip-path="url(#pdb700ecb53)" style="fill: none; stroke: #d95f02; stroke-linejoin: miter"/>
   </g>
   <g id="patch_5">
    <path d="M 30.763636 304.981683 
L 30.763636 304.981683 
L 44.072727 304.981683 
L 44.072727 304.981683 
L 57.381818 304.981683 
L 57.381818 304.981683 
L 70.690909 304.981683 
L 70.690909 304.981683 
L 84 304.981683 
L 84 304.981683 
L 97.309091 304.981683 
L 97.309091 304.981683 
L 110.618182 304.981683 
L 110.618182 303.362186 
L 123.927273 303.362186 
L 123.927273 301.742689 
L 137.236364 301.742689 
L 137.236364 292.025705 
L 150.545455 292.025705 
L 150.545455 300.123191 
L 163.854545 300.123191 
L 163.854545 272.591737 
L 177.163636 272.591737 
L 177.163636 261.255256 
L 190.472727 261.255256 
L 190.472727 241.821289 
L 203.781818 241.821289 
L 203.781818 193.23637 
L 217.090909 193.23637 
L 217.090909 159.226927 
L 230.4 159.226927 
L 230.4 181.899889 
L 243.709091 181.899889 
L 243.709091 225.626316 
L 257.018182 225.626316 
L 257.018182 224.006819 
L 270.327273 224.006819 
L 270.327273 253.15777 
L 283.636364 253.15777 
L 283.636364 264.494251 
L 296.945455 264.494251 
L 296.945455 300.123191 
L 310.254545 300.123191 
L 310.254545 296.884197 
L 323.563636 296.884197 
L 323.563636 304.981683 
L 336.872727 304.981683 
L 336.872727 303.362186 
L 350.181818 303.362186 
L 350.181818 304.981683 
L 363.490909 304.981683 
L 363.490909 304.981683 
L 376.8 304.981683 
L 376.8 304.981683 
L 390.109091 304.981683 
L 390.109091 304.981683 
L 403.418182 304.981683 
L 403.418182 304.981683 
L 416.727273 304.981683 
L 416.727273 304.981683 
L 430.036364 304.981683 
L 430.036364 304.981683 
" clip-path="url(#pdb700ecb53)" style="fill: none; stroke: #7570b3; stroke-linejoin: miter"/>
   </g>
   <g id="patch_6">
    <path d="M 10.8 304.981683 
L 450 304.981683 
" style="fill: none; stroke: #000000; stroke-width: 0.8; stroke-linejoin: miter; stroke-linecap: square"/>
   </g>
   <g id="legend_1">
    <g id="patch_7">
     <path d="M 295.47879 27.27198 
L 315.47879 27.27198 
L 315.47879 20.27198 
L 295.47879 20.27198 
L 295.47879 27.27198 
z
" style="fill: none; stroke: #1b9e77; stroke-linejoin: miter"/>
    </g>
    <g id="text_11">
     <!-- SHB05@30ms $(\sigma=0.8$ ms) -->
     <g transform="translate(323.47879 27.27198) scale(0.1 -0.1)">
      <defs>
       <path id="CMSS17-53" d="M 2797 4169 
C 2515 4334 2208 4480 1690 4480 
C 864 4480 333 3879 333 3266 
C 333 3025 403 2753 653 2475 
C 902 2196 1184 2121 1542 2033 
C 1690 1994 1939 1924 1984 1906 
C 2342 1767 2515 1444 2515 1140 
C 2515 742 2202 318 1645 318 
C 1453 318 890 318 358 819 
L 269 318 
C 794 -64 1363 -128 1651 -128 
C 2438 -128 3002 488 3002 1186 
C 3002 1440 2925 1763 2656 2061 
C 2394 2347 2163 2410 1638 2549 
C 1338 2626 1146 2677 986 2873 
C 877 3013 819 3146 819 3317 
C 819 3673 1126 4060 1690 4060 
C 1971 4060 2336 4002 2707 3660 
L 2797 4169 
z
" transform="scale(0.015625)"/>
       <path id="CMSS17-48" d="M 3674 4416 
L 3136 4416 
L 3136 2501 
L 1101 2501 
L 1101 4416 
L 563 4416 
L 563 0 
L 1101 0 
L 1101 2112 
L 3136 2112 
L 3136 0 
L 3674 0 
L 3674 4416 
z
" transform="scale(0.015625)"/>
       <path id="CMSS17-42" d="M 570 4416 
L 570 0 
L 2163 0 
C 3034 0 3667 574 3667 1200 
C 3667 1685 3251 2176 2502 2317 
C 3334 2558 3501 3040 3501 3313 
C 3501 3883 2874 4416 1997 4416 
L 570 4416 
z
M 1088 2496 
L 1088 4059 
L 1824 4059 
C 2483 4059 3002 3724 3002 3306 
C 3002 2926 2592 2496 1766 2496 
L 1088 2496 
z
M 1088 357 
L 1088 2107 
L 1939 2107 
C 2630 2107 3162 1679 3162 1206 
C 3162 772 2694 357 1984 357 
L 1088 357 
z
" transform="scale(0.015625)"/>
       <path id="CMSS17-30" d="M 2758 2044 
C 2758 2405 2752 3077 2490 3596 
C 2227 4096 1805 4229 1504 4229 
C 1069 4229 698 3975 506 3570 
C 301 3146 243 2709 243 2044 
C 243 1589 262 1031 493 543 
C 755 5 1197 -128 1498 -128 
C 1894 -128 2278 81 2496 518 
C 2720 974 2758 1474 2758 2044 
z
M 1498 261 
C 1011 261 864 811 819 995 
C 742 1310 730 1614 730 2114 
C 730 2506 730 2948 851 3297 
C 998 3701 1254 3840 1498 3840 
C 1971 3840 2125 3372 2176 3208 
C 2272 2873 2272 2481 2272 2114 
C 2272 1526 2272 261 1498 261 
z
" transform="scale(0.015625)"/>
       <path id="CMSS17-35" d="M 934 3752 
L 2502 3752 
L 2502 4160 
L 467 4160 
L 467 1781 
L 896 1781 
C 1011 2046 1248 2240 1555 2240 
C 1843 2240 2163 1989 2163 1266 
C 2163 493 1709 267 1376 267 
C 966 267 589 512 422 851 
L 218 499 
C 512 49 992 -128 1376 -128 
C 2118 -128 2701 497 2701 1253 
C 2701 2030 2182 2629 1562 2629 
C 1338 2629 1120 2553 934 2399 
L 934 3752 
z
" transform="scale(0.015625)"/>
       <path id="CMSS17-40" d="M 3366 541 
C 3270 541 3258 541 3194 509 
C 2925 388 2643 325 2349 325 
C 1491 325 819 1171 819 2208 
C 819 3317 1555 4092 2323 4092 
C 2566 4092 2867 3963 3027 3508 
C 2874 3597 2714 3648 2547 3648 
C 1958 3648 1427 3039 1427 2206 
C 1427 1372 1965 763 2547 763 
C 2931 763 3667 1103 3667 2308 
C 3667 2839 3667 4480 2323 4480 
C 1293 4480 333 3527 333 2208 
C 333 916 1261 -64 2336 -64 
C 3027 -64 3494 331 3667 541 
L 3366 541 
z
M 2547 1152 
C 2208 1152 1914 1602 1914 2206 
C 1914 2809 2208 3259 2547 3259 
C 2886 3259 3181 2809 3181 2206 
C 3181 1602 2886 1152 2547 1152 
z
" transform="scale(0.015625)"/>
       <path id="CMSS17-33" d="M 1005 2025 
L 1440 2025 
C 2042 2025 2214 1507 2214 1146 
C 2214 653 1933 267 1472 267 
C 1114 267 608 444 320 912 
C 275 691 275 678 250 526 
C 550 88 1037 -128 1485 -128 
C 2214 -128 2752 473 2752 1138 
C 2752 1638 2400 2057 1920 2215 
C 2304 2424 2586 2816 2586 3273 
C 2586 3805 2093 4229 1491 4229 
C 941 4229 512 3892 333 3530 
C 378 3468 493 3284 550 3189 
C 691 3562 1056 3840 1485 3840 
C 1843 3840 2080 3607 2080 3271 
C 2080 2923 1856 2543 1478 2455 
C 1453 2455 1056 2417 1005 2411 
L 1005 2025 
z
" transform="scale(0.015625)"/>
       <path id="CMR17-28" d="M 1958 -1561 
C 1958 -1555 1958 -1542 1939 -1523 
C 1645 -1224 858 -407 858 1581 
C 858 3569 1632 4379 1946 4697 
C 1946 4704 1958 4717 1958 4736 
C 1958 4755 1939 4768 1914 4768 
C 1843 4768 1299 4296 986 3594 
C 666 2887 576 2199 576 1588 
C 576 1128 621 351 1005 -471 
C 1312 -1135 1837 -1600 1914 -1600 
C 1946 -1600 1958 -1587 1958 -1561 
z
" transform="scale(0.015625)"/>
       <path id="CMMI12-1b" d="M 3251 2408 
C 3334 2408 3546 2408 3546 2612 
C 3546 2752 3424 2752 3309 2752 
L 1894 2752 
C 934 2752 243 1686 243 932 
C 243 390 595 -64 1171 -64 
C 1926 -64 2752 747 2752 1705 
C 2752 1954 2694 2196 2541 2408 
L 3251 2408 
z
M 1178 64 
C 851 64 614 313 614 754 
C 614 1137 845 2408 1786 2408 
C 2061 2408 2368 2274 2368 1781 
C 2368 1558 2266 1021 2042 652 
C 1811 275 1466 64 1178 64 
z
" transform="scale(0.015625)"/>
       <path id="CMR17-3d" d="M 4115 2017 
C 4211 2017 4307 2017 4307 2125 
C 4307 2240 4198 2240 4090 2240 
L 512 2240 
C 403 2240 294 2240 294 2125 
C 294 2017 390 2017 486 2017 
L 4115 2017 
z
M 4090 896 
C 4198 896 4307 896 4307 1011 
C 4307 1119 4211 1119 4115 1119 
L 486 1119 
C 390 1119 294 1119 294 1011 
C 294 896 403 896 512 896 
L 4090 896 
z
" transform="scale(0.015625)"/>
       <path id="CMR17-38" d="M 1741 2264 
C 2144 2467 2554 2773 2554 3263 
C 2554 3841 1990 4179 1472 4179 
C 890 4179 378 3759 378 3180 
C 378 3021 416 2747 666 2505 
C 730 2442 998 2251 1171 2130 
C 883 1983 211 1634 211 934 
C 211 279 838 -128 1459 -128 
C 2144 -128 2720 362 2720 1010 
C 2720 1590 2330 1857 2074 2029 
L 1741 2264 
z
M 902 2822 
C 851 2854 595 3051 595 3351 
C 595 3739 998 4032 1459 4032 
C 1965 4032 2336 3676 2336 3262 
C 2336 2669 1670 2331 1638 2331 
C 1632 2331 1626 2331 1574 2370 
L 902 2822 
z
M 2080 1519 
C 2176 1449 2483 1240 2483 851 
C 2483 381 2010 25 1472 25 
C 890 25 448 438 448 940 
C 448 1443 838 1862 1280 2060 
L 2080 1519 
z
" transform="scale(0.015625)"/>
       <path id="CMSS17-29" d="M 723 -1600 
C 1069 -1249 1862 -433 1862 1581 
C 1862 3601 1069 4411 723 4768 
L 333 4768 
C 1120 3952 1376 2811 1376 1588 
C 1376 370 1133 -778 333 -1600 
L 723 -1600 
z
" transform="scale(0.015625)"/>
      </defs>
      <use xlink:href="#CMSS17-53" transform="scale(0.996264)"/>
      <use xlink:href="#CMSS17-48" transform="translate(52.048516 0) scale(0.996264)"/>
      <use xlink:href="#CMSS17-42" transform="translate(118.110035 0) scale(0.996264)"/>
      <use xlink:href="#CMSS17-30" transform="translate(180.448076 0) scale(0.996264)"/>
      <use xlink:href="#CMSS17-35" transform="translate(227.291699 0) scale(0.996264)"/>
      <use xlink:href="#CMSS17-40" transform="translate(274.135323 0) scale(0.996264)"/>
      <use xlink:href="#CMSS17-33" transform="translate(336.593548 0) scale(0.996264)"/>
      <use xlink:href="#CMSS17-30" transform="translate(383.437172 0) scale(0.996264)"/>
      <use xlink:href="#CMSS17-6d" transform="translate(430.280795 0) scale(0.996264)"/>
      <use xlink:href="#CMSS17-73" transform="translate(504.51005 0) scale(0.996264)"/>
      <use xlink:href="#CMR17-28" transform="translate(571.652704 0) scale(0.996264)"/>
      <use xlink:href="#CMMI12-1b" transform="translate(606.933472 0) scale(0.996264)"/>
      <use xlink:href="#CMR17-3d" transform="translate(693.627534 0) scale(0.996264)"/>
      <use xlink:href="#CMR17-30" transform="translate(793.016332 0) scale(0.996264)"/>
      <use xlink:href="#CMMI12-3a" transform="translate(838.706809 0) scale(0.996264)"/>
      <use xlink:href="#CMR17-38" transform="translate(865.803986 0) scale(0.996264)"/>
      <use xlink:href="#CMSS17-6d" transform="translate(942.723576 0) scale(0.996264)"/>
      <use xlink:href="#CMSS17-73" transform="translate(1016.95283 0) scale(0.996264)"/>
      <use xlink:href="#CMSS17-29" transform="translate(1052.866372 0) scale(0.996264)"/>
     </g>
    </g>
    <g id="patch_8">
     <path d="M 295.47879 42.23462 
L 315.47879 42.23462 
L 315.47879 35.23462 
L 295.47879 35.23462 
L 295.47879 42.23462 
z
" style="fill: none; stroke: #d95f02; stroke-linejoin: miter"/>
    </g>
    <g id="text_12">
     <!-- SHB1T@30ms $(\sigma=6.2$ ms) -->
     <g transform="translate(323.47879 42.23462) scale(0.1 -0.1)">
      <defs>
       <path id="CMSS17-31" d="M 1818 4288 
L 1696 4288 
C 1350 3940 947 3890 538 3890 
L 538 3520 
C 723 3520 1024 3520 1325 3667 
L 1325 369 
L 570 369 
L 570 0 
L 2573 0 
L 2573 369 
L 1818 369 
L 1818 4288 
z
" transform="scale(0.015625)"/>
       <path id="CMSS17-54" d="M 2317 3968 
L 2848 3968 
C 2925 3968 3002 3968 3078 3968 
L 3878 3968 
L 3878 4376 
L 218 4376 
L 218 3968 
L 1018 3968 
C 1094 3968 1171 3968 1248 3968 
L 1779 3968 
L 1779 -32 
L 2317 -32 
L 2317 3968 
z
" transform="scale(0.015625)"/>
       <path id="CMR17-36" d="M 678 2176 
C 678 3690 1395 4032 1811 4032 
C 1946 4032 2272 4009 2400 3776 
C 2298 3776 2106 3776 2106 3553 
C 2106 3381 2246 3323 2336 3323 
C 2394 3323 2566 3348 2566 3560 
C 2566 3954 2246 4179 1805 4179 
C 1043 4179 243 3390 243 1984 
C 243 253 966 -128 1478 -128 
C 2099 -128 2688 427 2688 1283 
C 2688 2081 2170 2662 1517 2662 
C 1126 2662 838 2407 678 1960 
L 678 2176 
z
M 1478 25 
C 691 25 691 1200 691 1436 
C 691 1896 909 2560 1504 2560 
C 1613 2560 1926 2560 2138 2120 
C 2253 1870 2253 1609 2253 1289 
C 2253 944 2253 690 2118 434 
C 1978 171 1773 25 1478 25 
z
" transform="scale(0.015625)"/>
      </defs>
      <use xlink:href="#CMSS17-53" transform="scale(0.996264)"/>
      <use xlink:href="#CMSS17-48" transform="translate(52.048516 0) scale(0.996264)"/>
      <use xlink:href="#CMSS17-42" transform="translate(118.110035 0) scale(0.996264)"/>
      <use xlink:href="#CMSS17-31" transform="translate(180.448076 0) scale(0.996264)"/>
      <use xlink:href="#CMSS17-54" transform="translate(227.291699 0) scale(0.996264)"/>
      <use xlink:href="#CMSS17-40" transform="translate(291.111153 0) scale(0.996264)"/>
      <use xlink:href="#CMSS17-33" transform="translate(353.569379 0) scale(0.996264)"/>
      <use xlink:href="#CMSS17-30" transform="translate(400.413002 0) scale(0.996264)"/>
      <use xlink:href="#CMSS17-6d" transform="translate(447.256626 0) scale(0.996264)"/>
      <use xlink:href="#CMSS17-73" transform="translate(521.48588 0) scale(0.996264)"/>
      <use xlink:href="#CMR17-28" transform="translate(588.628535 0) scale(0.996264)"/>
      <use xlink:href="#CMMI12-1b" transform="translate(623.909303 0) scale(0.996264)"/>
      <use xlink:href="#CMR17-3d" transform="translate(710.603365 0) scale(0.996264)"/>
      <use xlink:href="#CMR17-36" transform="translate(809.992162 0) scale(0.996264)"/>
      <use xlink:href="#CMMI12-3a" transform="translate(855.682639 0) scale(0.996264)"/>
      <use xlink:href="#CMR17-32" transform="translate(882.779816 0) scale(0.996264)"/>
      <use xlink:href="#CMSS17-6d" transform="translate(959.699406 0) scale(0.996264)"/>
      <use xlink:href="#CMSS17-73" transform="translate(1033.92866 0) scale(0.996264)"/>
      <use xlink:href="#CMSS17-29" transform="translate(1069.842202 0) scale(0.996264)"/>
     </g>
    </g>
    <g id="patch_9">
     <path d="M 295.47879 57.19726 
L 315.47879 57.19726 
L 315.47879 50.19726 
L 295.47879 50.19726 
L 295.47879 57.19726 
z
" style="fill: none; stroke: #7570b3; stroke-linejoin: miter"/>
    </g>
    <g id="text_13">
     <!-- SHB1T@35ms $(\sigma=1.7$ ms) -->
     <g transform="translate(323.47879 57.19726) scale(0.1 -0.1)">
      <use xlink:href="#CMSS17-53" transform="scale(0.996264)"/>
      <use xlink:href="#CMSS17-48" transform="translate(52.048516 0) scale(0.996264)"/>
      <use xlink:href="#CMSS17-42" transform="translate(118.110035 0) scale(0.996264)"/>
      <use xlink:href="#CMSS17-31" transform="translate(180.448076 0) scale(0.996264)"/>
      <use xlink:href="#CMSS17-54" transform="translate(227.291699 0) scale(0.996264)"/>
      <use xlink:href="#CMSS17-40" transform="translate(291.111153 0) scale(0.996264)"/>
      <use xlink:href="#CMSS17-33" transform="translate(353.569379 0) scale(0.996264)"/>
      <use xlink:href="#CMSS17-35" transform="translate(400.413002 0) scale(0.996264)"/>
      <use xlink:href="#CMSS17-6d" transform="translate(447.256626 0) scale(0.996264)"/>
      <use xlink:href="#CMSS17-73" transform="translate(521.48588 0) scale(0.996264)"/>
      <use xlink:href="#CMR17-28" transform="translate(588.628535 0) scale(0.996264)"/>
      <use xlink:href="#CMMI12-1b" transform="translate(623.909303 0) scale(0.996264)"/>
      <use xlink:href="#CMR17-3d" transform="translate(710.603365 0) scale(0.996264)"/>
      <use xlink:href="#CMR17-31" transform="translate(809.992162 0) scale(0.996264)"/>
      <use xlink:href="#CMMI12-3a" transform="translate(855.682639 0) scale(0.996264)"/>
      <use xlink:href="#CMR17-37" transform="translate(882.779816 0) scale(0.996264)"/>
      <use xlink:href="#CMSS17-6d" transform="translate(959.699406 0) scale(0.996264)"/>
      <use xlink:href="#CMSS17-73" transform="translate(1033.92866 0) scale(0.996264)"/>
      <use xlink:href="#CMSS17-29" transform="translate(1069.842202 0) scale(0.996264)"/>
     </g>
    </g>
   </g>
  </g>
 </g>
 <defs>
  <clipPath id="pdb700ecb53">
   <rect x="10.8" y="10.8" width="439.2" height="294.181683"/>
  </clipPath>
 </defs>
</svg>
