<?xml version="1.0" encoding="utf-8" standalone="no"?>
<!DOCTYPE svg PUBLIC "-//W3C//DTD SVG 1.1//EN"
  "http://www.w3.org/Graphics/SVG/1.1/DTD/svg11.dtd">
<svg xmlns:xlink="http://www.w3.org/1999/xlink" width="460.8pt" height="345.6pt" viewBox="0 0 460.8 345.6" xmlns="http://www.w3.org/2000/svg" version="1.1">
 <metadata>
  <rdf:RDF xmlns:dc="http://purl.org/dc/elements/1.1/" xmlns:cc="http://creativecommons.org/ns#" xmlns:rdf="http://www.w3.org/1999/02/22-rdf-syntax-ns#">
   <cc:Work>
    <dc:type rdf:resource="http://purl.org/dc/dcmitype/StillImage"/>
    <dc:date>2025-04-11T14:10:02.697240</dc:date>
    <dc:format>image/svg+xml</dc:format>
    <dc:creator>
     <cc:Agent>
      <dc:title>Matplotlib v3.10.1, https://matplotlib.org/</dc:title>
     </cc:Agent>
    </dc:creator>
   </cc:Work>
  </rdf:RDF>
 </metadata>
 <defs>
  <style type="text/css">*{stroke-linejoin: round; stroke-linecap: butt}</style>
 </defs>
 <g id="figure_1">
  <g id="patch_1">
   <path d="M 0 345.6 
L 460.8 345.6 
L 460.8 0 
L 0 0 
z
" style="fill: #ffffff"/>
  </g>
  <g id="axes_1">
   <g id="patch_2">
    <path d="M 19.655677 150.740842 
L 445.018665 150.740842 
L 445.018665 10.8 
L 19.655677 10.8 
z
" style="fill: #ffffff"/>
   </g>
   <g id="matplotlib.axis_1">
    <g id="xtick_1">
     <g id="line2d_1">
      <defs>
       <path id="m4a3d6fabdd" d="M 0 0 
L 0 3.5 
" style="stroke: #000000; stroke-width: 0.8"/>
      </defs>
      <g>
       <use xlink:href="#m4a3d6fabdd" x="19.655677" y="150.740842" style="stroke: #000000; stroke-width: 0.8"/>
      </g>
     </g>
    </g>
    <g id="xtick_2">
     <g id="line2d_2">
      <g>
       <use xlink:href="#m4a3d6fabdd" x="72.82605" y="150.740842" style="stroke: #000000; stroke-width: 0.8"/>
      </g>
     </g>
    </g>
    <g id="xtick_3">
     <g id="line2d_3">
      <g>
       <use xlink:href="#m4a3d6fabdd" x="125.996424" y="150.740842" style="stroke: #000000; stroke-width: 0.8"/>
      </g>
     </g>
    </g>
    <g id="xtick_4">
     <g id="line2d_4">
      <g>
       <use xlink:href="#m4a3d6fabdd" x="179.166797" y="150.740842" style="stroke: #000000; stroke-width: 0.8"/>
      </g>
     </g>
    </g>
    <g id="xtick_5">
     <g id="line2d_5">
      <g>
       <use xlink:href="#m4a3d6fabdd" x="232.337171" y="150.740842" style="stroke: #000000; stroke-width: 0.8"/>
      </g>
     </g>
    </g>
    <g id="xtick_6">
     <g id="line2d_6">
      <g>
       <use xlink:href="#m4a3d6fabdd" x="285.507544" y="150.740842" style="stroke: #000000; stroke-width: 0.8"/>
      </g>
     </g>
    </g>
    <g id="xtick_7">
     <g id="line2d_7">
      <g>
       <use xlink:href="#m4a3d6fabdd" x="338.677918" y="150.740842" style="stroke: #000000; stroke-width: 0.8"/>
      </g>
     </g>
    </g>
    <g id="xtick_8">
     <g id="line2d_8">
      <g>
       <use xlink:href="#m4a3d6fabdd" x="391.848291" y="150.740842" style="stroke: #000000; stroke-width: 0.8"/>
      </g>
     </g>
    </g>
    <g id="xtick_9">
     <g id="line2d_9">
      <g>
       <use xlink:href="#m4a3d6fabdd" x="445.018665" y="150.740842" style="stroke: #000000; stroke-width: 0.8"/>
      </g>
     </g>
    </g>
   </g>
   <g id="matplotlib.axis_2"/>
   <g id="patch_3">
    <path d="M 93.983797 150.740842 
L 93.983797 133.964717 
L 97.607572 133.964717 
L 97.607572 75.24828 
L 101.231346 75.24828 
L 101.231346 17.46385 
L 104.85512 17.46385 
L 104.85512 25.851912 
L 108.478894 25.851912 
L 108.478894 71.054248 
L 112.102668 71.054248 
L 112.102668 123.71264 
L 115.726442 123.71264 
L 115.726442 146.080807 
L 119.350216 146.080807 
L 119.350216 148.876828 
L 122.97399 148.876828 
L 122.97399 148.876828 
L 126.597764 148.876828 
L 126.597764 150.274838 
L 130.221538 150.274838 
L 130.221538 150.740842 
" clip-path="url(#pa2b9eb84ff)" style="fill: none; stroke: #1b9e77; stroke-linejoin: miter"/>
   </g>
   <g id="line2d_10">
    <path d="M 338.677918 150.740842 
L 338.677918 10.8 
" clip-path="url(#pa2b9eb84ff)" style="fill: none; stroke: #1b9e77; stroke-width: 1.5; stroke-linecap: square"/>
   </g>
   <g id="patch_4">
    <path d="M 210.843859 150.740842 
L 210.843859 138.315705 
L 248.456612 138.315705 
L 248.456612 127.368652 
L 286.069364 127.368652 
L 286.069364 144.689939 
L 323.682117 144.689939 
L 323.682117 149.586089 
L 361.294869 149.586089 
L 361.294869 150.371321 
L 398.907622 150.371321 
L 398.907622 150.417511 
L 436.520374 150.417511 
L 436.520374 150.556081 
L 461.8 150.556081 
" clip-path="url(#pa2b9eb84ff)" style="fill: none; stroke: #d95f02; stroke-linejoin: miter"/>
   </g>
   <g id="line2d_11">
    <path d="M 338.677918 150.740842 
L 338.677918 10.8 
" clip-path="url(#pa2b9eb84ff)" style="fill: none; stroke: #d95f02; stroke-width: 1.5; stroke-linecap: square"/>
   </g>
   <g id="patch_5">
    <path d="M 231.646126 150.740842 
L 231.646126 148.186987 
L 242.225843 148.186987 
L 242.225843 136.375409 
L 252.805561 136.375409 
L 252.805561 125.840759 
L 263.385278 125.840759 
L 263.385278 114.348413 
L 273.964996 114.348413 
L 273.964996 105.09069 
L 284.544713 105.09069 
L 284.544713 125.521527 
L 295.124431 125.521527 
L 295.124431 144.356205 
L 305.704148 144.356205 
L 305.704148 148.186987 
L 316.283865 148.186987 
L 316.283865 150.102378 
L 326.863583 150.102378 
L 326.863583 149.783146 
L 337.4433 149.783146 
L 337.4433 150.740842 
" clip-path="url(#pa2b9eb84ff)" style="fill: none; stroke: #7570b3; stroke-linejoin: miter"/>
   </g>
   <g id="line2d_12">
    <path d="M 391.848291 150.740842 
L 391.848291 10.8 
" clip-path="url(#pa2b9eb84ff)" style="fill: none; stroke: #7570b3; stroke-width: 1.5; stroke-linecap: square"/>
   </g>
   <g id="line2d_13">
    <path d="M 19.655677 150.740842 
L 19.655677 10.8 
" clip-path="url(#pa2b9eb84ff)" style="fill: none; stroke: #000000; stroke-width: 1.5; stroke-linecap: square"/>
   </g>
   <g id="patch_6">
    <path d="M 19.655677 150.740842 
L 445.018665 150.740842 
" style="fill: none; stroke: #000000; stroke-width: 0.8; stroke-linejoin: miter; stroke-linecap: square"/>
   </g>
   <g id="text_1">
    <!-- pulse end -->
    <g style="fill: #1b9e77" transform="translate(336.740739 56.762038) rotate(-90) scale(0.1 -0.1)">
     <defs>
      <path id="CMSS17-70" d="M 966 333 
C 1178 129 1466 -5 1773 -5 
C 2368 -5 2880 603 2880 1412 
C 2880 2159 2496 2816 1946 2816 
C 1626 2816 1242 2702 954 2472 
L 954 2765 
L 480 2765 
L 480 -1216 
L 966 -1216 
L 966 333 
z
M 966 2100 
C 1018 2176 1235 2415 1587 2415 
C 2035 2415 2394 1960 2394 1412 
C 2394 787 1958 384 1530 384 
C 1402 384 1267 415 1139 523 
C 966 674 966 768 966 857 
L 966 2100 
z
" transform="scale(0.015625)"/>
      <path id="CMSS17-75" d="M 2618 2739 
L 2131 2739 
L 2131 972 
C 2131 498 1786 306 1421 306 
C 998 306 960 447 960 709 
L 960 2739 
L 474 2739 
L 474 678 
C 474 179 646 -64 1088 -64 
C 1306 -64 1798 -13 2144 306 
L 2144 0 
L 2618 0 
L 2618 2739 
z
" transform="scale(0.015625)"/>
      <path id="CMSS17-6c" d="M 947 4416 
L 474 4416 
L 474 0 
L 947 0 
L 947 4416 
z
" transform="scale(0.015625)"/>
      <path id="CMSS17-73" d="M 2061 2627 
C 1683 2807 1389 2807 1197 2807 
C 742 2807 198 2648 198 2003 
C 198 1359 902 1218 1094 1179 
C 1389 1122 1715 1058 1715 740 
C 1715 337 1254 337 1171 337 
C 915 337 563 407 243 638 
L 166 210 
C 531 0 883 -64 1178 -64 
C 1965 -64 2163 416 2163 781 
C 2163 1094 1984 1305 1862 1401 
C 1651 1568 1574 1587 1050 1696 
C 960 1709 646 1779 646 2066 
C 646 2432 1050 2432 1139 2432 
C 1555 2432 1811 2303 1984 2208 
L 2061 2627 
z
" transform="scale(0.015625)"/>
      <path id="CMSS17-65" d="M 2502 1377 
C 2502 1590 2490 2003 2285 2345 
C 2061 2713 1696 2816 1421 2816 
C 755 2816 192 2188 192 1375 
C 192 582 774 -64 1510 -64 
C 1798 -64 2150 19 2470 248 
C 2470 274 2458 414 2451 420 
C 2451 433 2432 630 2432 656 
C 2125 407 1773 325 1517 325 
C 1107 325 666 667 646 1377 
L 2502 1377 
z
M 698 1728 
C 781 2084 1062 2421 1421 2421 
C 1517 2421 1965 2421 2080 1728 
L 698 1728 
z
" transform="scale(0.015625)"/>
      <path id="CMSS17-6e" d="M 2618 1877 
C 2618 2283 2522 2816 1798 2816 
C 1389 2816 1120 2606 941 2389 
L 941 2758 
L 474 2758 
L 474 0 
L 960 0 
L 960 1559 
C 960 1964 1114 2428 1549 2428 
C 2112 2428 2131 2048 2131 1829 
L 2131 0 
L 2618 0 
L 2618 1877 
z
" transform="scale(0.015625)"/>
      <path id="CMSS17-64" d="M 2611 4416 
L 2138 4416 
L 2138 2438 
C 1939 2603 1613 2756 1254 2756 
C 672 2756 211 2131 211 1347 
C 211 562 666 -64 1235 -64 
C 1677 -64 1971 172 2125 306 
L 2125 -13 
L 2611 -13 
L 2611 4416 
z
M 2125 836 
C 2125 747 2125 653 1926 482 
C 1798 375 1645 325 1498 325 
C 1152 325 698 576 698 1340 
C 698 2134 1210 2368 1562 2368 
C 1798 2368 1990 2254 2125 2065 
L 2125 836 
z
" transform="scale(0.015625)"/>
     </defs>
     <use xlink:href="#CMSS17-70" transform="scale(0.996264)"/>
     <use xlink:href="#CMSS17-75" transform="translate(48.204943 0) scale(0.996264)"/>
     <use xlink:href="#CMSS17-6c" transform="translate(96.409886 0) scale(0.996264)"/>
     <use xlink:href="#CMSS17-73" transform="translate(118.590609 0) scale(0.996264)"/>
     <use xlink:href="#CMSS17-65" transform="translate(154.504151 0) scale(0.996264)"/>
     <use xlink:href="#CMSS17-65" transform="translate(227.372086 0) scale(0.996264)"/>
     <use xlink:href="#CMSS17-6e" transform="translate(269.010908 0) scale(0.996264)"/>
     <use xlink:href="#CMSS17-64" transform="translate(317.215851 0) scale(0.996264)"/>
    </g>
   </g>
   <g id="text_2">
    <!-- pulse end -->
    <g style="fill: #d95f02" transform="translate(336.740739 56.762038) rotate(-90) scale(0.1 -0.1)">
     <use xlink:href="#CMSS17-70" transform="scale(0.996264)"/>
     <use xlink:href="#CMSS17-75" transform="translate(48.204943 0) scale(0.996264)"/>
     <use xlink:href="#CMSS17-6c" transform="translate(96.409886 0) scale(0.996264)"/>
     <use xlink:href="#CMSS17-73" transform="translate(118.590609 0) scale(0.996264)"/>
     <use xlink:href="#CMSS17-65" transform="translate(154.504151 0) scale(0.996264)"/>
     <use xlink:href="#CMSS17-65" transform="translate(227.372086 0) scale(0.996264)"/>
     <use xlink:href="#CMSS17-6e" transform="translate(269.010908 0) scale(0.996264)"/>
     <use xlink:href="#CMSS17-64" transform="translate(317.215851 0) scale(0.996264)"/>
    </g>
   </g>
   <g id="text_3">
    <!-- pulse end -->
    <g style="fill: #7570b3" transform="translate(389.911113 56.762038) rotate(-90) scale(0.1 -0.1)">
     <use xlink:href="#CMSS17-70" transform="scale(0.996264)"/>
     <use xlink:href="#CMSS17-75" transform="translate(48.204943 0) scale(0.996264)"/>
     <use xlink:href="#CMSS17-6c" transform="translate(96.409886 0) scale(0.996264)"/>
     <use xlink:href="#CMSS17-73" transform="translate(118.590609 0) scale(0.996264)"/>
     <use xlink:href="#CMSS17-65" transform="translate(154.504151 0) scale(0.996264)"/>
     <use xlink:href="#CMSS17-65" transform="translate(227.372086 0) scale(0.996264)"/>
     <use xlink:href="#CMSS17-6e" transform="translate(269.010908 0) scale(0.996264)"/>
     <use xlink:href="#CMSS17-64" transform="translate(317.215851 0) scale(0.996264)"/>
    </g>
   </g>
   <g id="text_4">
    <!-- opening pulse -->
    <g transform="translate(17.718498 74.528787) rotate(-90) scale(0.1 -0.1)">
     <defs>
      <path id="CMSS17-6f" d="M 2829 1356 
C 2829 2176 2221 2816 1504 2816 
C 768 2816 173 2157 173 1356 
C 173 544 787 -64 1498 -64 
C 2227 -64 2829 563 2829 1356 
z
M 1504 337 
C 1050 337 659 709 659 1408 
C 659 2151 1114 2427 1498 2427 
C 1914 2427 2342 2126 2342 1408 
C 2342 683 1926 337 1504 337 
z
" transform="scale(0.015625)"/>
      <path id="CMSS17-69" d="M 979 4183 
L 442 4183 
L 442 3648 
L 979 3648 
L 979 4183 
z
M 947 2739 
L 474 2739 
L 474 0 
L 947 0 
L 947 2739 
z
" transform="scale(0.015625)"/>
      <path id="CMSS17-67" d="M 2848 2808 
C 2483 2808 2170 2738 1914 2617 
C 1702 2777 1485 2808 1338 2808 
C 781 2808 358 2349 358 1814 
C 358 1468 550 1207 563 1195 
C 448 1035 384 863 384 672 
C 384 448 474 289 544 200 
C 211 -3 166 -314 166 -435 
C 166 -898 749 -1280 1498 -1280 
C 2253 -1280 2835 -898 2835 -428 
C 2835 448 1856 448 1587 448 
L 1069 448 
C 973 448 717 448 717 791 
C 717 921 774 1004 781 1010 
C 877 940 1075 832 1338 832 
C 1869 832 2310 1278 2310 1827 
C 2310 2132 2170 2355 2112 2432 
L 2131 2432 
C 2150 2432 2419 2432 2515 2432 
C 2720 2432 2739 2429 2918 2419 
L 2848 2808 
z
M 1338 1182 
C 1120 1182 813 1315 813 1823 
C 813 2375 1165 2464 1331 2464 
C 1549 2464 1856 2331 1856 1823 
C 1856 1271 1504 1182 1338 1182 
z
M 1581 -10 
C 1734 -10 2381 -10 2381 -442 
C 2381 -714 1984 -929 1504 -929 
C 1018 -929 621 -720 621 -435 
C 621 -403 621 -10 1062 -10 
L 1581 -10 
z
" transform="scale(0.015625)"/>
     </defs>
     <use xlink:href="#CMSS17-6f" transform="scale(0.996264)"/>
     <use xlink:href="#CMSS17-70" transform="translate(46.843624 0) scale(0.996264)"/>
     <use xlink:href="#CMSS17-65" transform="translate(97.651005 0) scale(0.996264)"/>
     <use xlink:href="#CMSS17-6e" transform="translate(139.289827 0) scale(0.996264)"/>
     <use xlink:href="#CMSS17-69" transform="translate(187.494771 0) scale(0.996264)"/>
     <use xlink:href="#CMSS17-6e" transform="translate(209.675494 0) scale(0.996264)"/>
     <use xlink:href="#CMSS17-67" transform="translate(257.880437 0) scale(0.996264)"/>
     <use xlink:href="#CMSS17-70" transform="translate(335.953173 0) scale(0.996264)"/>
     <use xlink:href="#CMSS17-75" transform="translate(384.158116 0) scale(0.996264)"/>
     <use xlink:href="#CMSS17-6c" transform="translate(432.363059 0) scale(0.996264)"/>
     <use xlink:href="#CMSS17-73" transform="translate(454.543782 0) scale(0.996264)"/>
     <use xlink:href="#CMSS17-65" transform="translate(490.457324 0) scale(0.996264)"/>
    </g>
   </g>
  </g>
  <g id="axes_2">
   <g id="patch_7">
    <path d="M 19.655677 304.981683 
L 445.018665 304.981683 
L 445.018665 165.040842 
L 19.655677 165.040842 
z
" style="fill: #ffffff"/>
   </g>
   <g id="matplotlib.axis_3">
    <g id="xtick_10">
     <g id="line2d_14">
      <g>
       <use xlink:href="#m4a3d6fabdd" x="19.655677" y="304.981683" style="stroke: #000000; stroke-width: 0.8"/>
      </g>
     </g>
     <g id="text_5">
      <!-- $\mathdefault{0}$ -->
      <g transform="translate(17.165009 318.900182) scale(0.1 -0.1)">
       <defs>
        <path id="CMR17-30" d="M 2688 2025 
C 2688 2416 2682 3080 2413 3591 
C 2176 4039 1798 4198 1466 4198 
C 1158 4198 768 4058 525 3597 
C 269 3118 243 2524 243 2025 
C 243 1661 250 1106 448 619 
C 723 -39 1216 -128 1466 -128 
C 1760 -128 2208 -7 2470 600 
C 2662 1042 2688 1559 2688 2025 
z
M 1466 -26 
C 1056 -26 813 325 723 812 
C 653 1188 653 1738 653 2096 
C 653 2588 653 2997 736 3387 
C 858 3929 1216 4096 1466 4096 
C 1728 4096 2067 3923 2189 3400 
C 2272 3036 2278 2607 2278 2096 
C 2278 1680 2278 1169 2202 792 
C 2067 95 1690 -26 1466 -26 
z
" transform="scale(0.015625)"/>
       </defs>
       <use xlink:href="#CMR17-30" transform="scale(0.996264)"/>
      </g>
     </g>
    </g>
    <g id="xtick_11">
     <g id="line2d_15">
      <g>
       <use xlink:href="#m4a3d6fabdd" x="72.82605" y="304.981683" style="stroke: #000000; stroke-width: 0.8"/>
      </g>
     </g>
     <g id="text_6">
      <!-- $\mathdefault{5}$ -->
      <g transform="translate(70.335383 318.900182) scale(0.1 -0.1)">
       <defs>
        <path id="CMR17-35" d="M 730 3692 
C 794 3666 1056 3584 1325 3584 
C 1920 3584 2246 3911 2432 4100 
C 2432 4157 2432 4192 2394 4192 
C 2387 4192 2374 4192 2323 4163 
C 2099 4058 1837 3973 1517 3973 
C 1325 3973 1037 3999 723 4139 
C 653 4171 640 4171 634 4171 
C 602 4171 595 4164 595 4037 
L 595 2203 
C 595 2089 595 2057 659 2057 
C 691 2057 704 2070 736 2114 
C 941 2401 1222 2522 1542 2522 
C 1766 2522 2246 2382 2246 1289 
C 2246 1085 2246 715 2054 421 
C 1894 159 1645 25 1370 25 
C 947 25 518 320 403 814 
C 429 807 480 795 506 795 
C 589 795 749 840 749 1038 
C 749 1210 627 1280 506 1280 
C 358 1280 262 1190 262 1011 
C 262 454 704 -128 1382 -128 
C 2042 -128 2669 440 2669 1264 
C 2669 2030 2170 2624 1549 2624 
C 1222 2624 947 2503 730 2274 
L 730 3692 
z
" transform="scale(0.015625)"/>
       </defs>
       <use xlink:href="#CMR17-35" transform="scale(0.996264)"/>
      </g>
     </g>
    </g>
    <g id="xtick_12">
     <g id="line2d_16">
      <g>
       <use xlink:href="#m4a3d6fabdd" x="125.996424" y="304.981683" style="stroke: #000000; stroke-width: 0.8"/>
      </g>
     </g>
     <g id="text_7">
      <!-- $\mathdefault{10}$ -->
      <g transform="translate(121.015088 318.900182) scale(0.1 -0.1)">
       <defs>
        <path id="CMR17-31" d="M 1702 4058 
C 1702 4192 1696 4192 1606 4192 
C 1357 3916 979 3827 621 3827 
C 602 3827 570 3827 563 3808 
C 557 3795 557 3782 557 3648 
C 755 3648 1088 3686 1344 3839 
L 1344 461 
C 1344 236 1331 160 781 160 
L 589 160 
L 589 0 
C 896 0 1216 0 1523 0 
C 1830 0 2150 0 2458 0 
L 2458 160 
L 2266 160 
C 1715 160 1702 230 1702 458 
L 1702 4058 
z
" transform="scale(0.015625)"/>
       </defs>
       <use xlink:href="#CMR17-31" transform="scale(0.996264)"/>
       <use xlink:href="#CMR17-30" transform="translate(45.690477 0) scale(0.996264)"/>
      </g>
     </g>
    </g>
    <g id="xtick_13">
     <g id="line2d_17">
      <g>
       <use xlink:href="#m4a3d6fabdd" x="179.166797" y="304.981683" style="stroke: #000000; stroke-width: 0.8"/>
      </g>
     </g>
     <g id="text_8">
      <!-- $\mathdefault{15}$ -->
      <g transform="translate(174.185462 318.900182) scale(0.1 -0.1)">
       <use xlink:href="#CMR17-31" transform="scale(0.996264)"/>
       <use xlink:href="#CMR17-35" transform="translate(45.690477 0) scale(0.996264)"/>
      </g>
     </g>
    </g>
    <g id="xtick_14">
     <g id="line2d_18">
      <g>
       <use xlink:href="#m4a3d6fabdd" x="232.337171" y="304.981683" style="stroke: #000000; stroke-width: 0.8"/>
      </g>
     </g>
     <g id="text_9">
      <!-- $\mathdefault{20}$ -->
      <g transform="translate(227.355835 318.900182) scale(0.1 -0.1)">
       <defs>
        <path id="CMR17-32" d="M 2669 989 
L 2554 989 
C 2490 536 2438 459 2413 420 
C 2381 369 1920 369 1830 369 
L 602 369 
C 832 619 1280 1072 1824 1597 
C 2214 1967 2669 2402 2669 3035 
C 2669 3790 2067 4224 1395 4224 
C 691 4224 262 3604 262 3030 
C 262 2780 448 2748 525 2748 
C 589 2748 781 2787 781 3010 
C 781 3207 614 3264 525 3264 
C 486 3264 448 3258 422 3245 
C 544 3790 915 4058 1306 4058 
C 1862 4058 2227 3617 2227 3035 
C 2227 2479 1901 2000 1536 1584 
L 262 146 
L 262 0 
L 2515 0 
L 2669 989 
z
" transform="scale(0.015625)"/>
       </defs>
       <use xlink:href="#CMR17-32" transform="scale(0.996264)"/>
       <use xlink:href="#CMR17-30" transform="translate(45.690477 0) scale(0.996264)"/>
      </g>
     </g>
    </g>
    <g id="xtick_15">
     <g id="line2d_19">
      <g>
       <use xlink:href="#m4a3d6fabdd" x="285.507544" y="304.981683" style="stroke: #000000; stroke-width: 0.8"/>
      </g>
     </g>
     <g id="text_10">
      <!-- $\mathdefault{25}$ -->
      <g transform="translate(280.526209 318.900182) scale(0.1 -0.1)">
       <use xlink:href="#CMR17-32" transform="scale(0.996264)"/>
       <use xlink:href="#CMR17-35" transform="translate(45.690477 0) scale(0.996264)"/>
      </g>
     </g>
    </g>
    <g id="xtick_16">
     <g id="line2d_20">
      <g>
       <use xlink:href="#m4a3d6fabdd" x="338.677918" y="304.981683" style="stroke: #000000; stroke-width: 0.8"/>
      </g>
     </g>
     <g id="text_11">
      <!-- $\mathdefault{30}$ -->
      <g transform="translate(333.696582 318.900182) scale(0.1 -0.1)">
       <defs>
        <path id="CMR17-33" d="M 1414 2157 
C 1984 2157 2234 1662 2234 1090 
C 2234 320 1824 25 1453 25 
C 1114 25 563 194 390 693 
C 422 680 454 680 486 680 
C 640 680 755 782 755 948 
C 755 1133 614 1216 486 1216 
C 378 1216 211 1165 211 926 
C 211 335 787 -128 1466 -128 
C 2176 -128 2720 430 2720 1085 
C 2720 1707 2208 2157 1600 2227 
C 2086 2328 2554 2756 2554 3329 
C 2554 3820 2048 4179 1472 4179 
C 890 4179 378 3829 378 3329 
C 378 3110 544 3072 627 3072 
C 762 3072 877 3155 877 3321 
C 877 3486 762 3569 627 3569 
C 602 3569 570 3569 544 3557 
C 730 3959 1235 4032 1459 4032 
C 1683 4032 2106 3925 2106 3320 
C 2106 3143 2080 2828 1862 2550 
C 1670 2304 1453 2304 1242 2284 
C 1210 2284 1062 2269 1037 2269 
C 992 2263 966 2257 966 2208 
C 966 2163 973 2157 1101 2157 
L 1414 2157 
z
" transform="scale(0.015625)"/>
       </defs>
       <use xlink:href="#CMR17-33" transform="scale(0.996264)"/>
       <use xlink:href="#CMR17-30" transform="translate(45.690477 0) scale(0.996264)"/>
      </g>
     </g>
    </g>
    <g id="xtick_17">
     <g id="line2d_21">
      <g>
       <use xlink:href="#m4a3d6fabdd" x="391.848291" y="304.981683" style="stroke: #000000; stroke-width: 0.8"/>
      </g>
     </g>
     <g id="text_12">
      <!-- $\mathdefault{35}$ -->
      <g transform="translate(386.866956 318.900182) scale(0.1 -0.1)">
       <use xlink:href="#CMR17-33" transform="scale(0.996264)"/>
       <use xlink:href="#CMR17-35" transform="translate(45.690477 0) scale(0.996264)"/>
      </g>
     </g>
    </g>
    <g id="xtick_18">
     <g id="line2d_22">
      <g>
       <use xlink:href="#m4a3d6fabdd" x="445.018665" y="304.981683" style="stroke: #000000; stroke-width: 0.8"/>
      </g>
     </g>
     <g id="text_13">
      <!-- $\mathdefault{40}$ -->
      <g transform="translate(440.037329 318.900182) scale(0.1 -0.1)">
       <defs>
        <path id="CMR17-34" d="M 2150 4122 
C 2150 4256 2144 4256 2029 4256 
L 128 1254 
L 128 1088 
L 1779 1088 
L 1779 457 
C 1779 224 1766 160 1318 160 
L 1197 160 
L 1197 0 
C 1402 0 1747 0 1965 0 
C 2182 0 2528 0 2733 0 
L 2733 160 
L 2611 160 
C 2163 160 2150 224 2150 457 
L 2150 1088 
L 2803 1088 
L 2803 1254 
L 2150 1254 
L 2150 4122 
z
M 1798 3703 
L 1798 1254 
L 256 1254 
L 1798 3703 
z
" transform="scale(0.015625)"/>
       </defs>
       <use xlink:href="#CMR17-34" transform="scale(0.996264)"/>
       <use xlink:href="#CMR17-30" transform="translate(45.690477 0) scale(0.996264)"/>
      </g>
     </g>
    </g>
    <g id="text_14">
     <!-- $\Delta t$ [ms] -->
     <g transform="translate(215.981824 332.30934) scale(0.1 -0.1)">
      <defs>
       <path id="CMR17-1" d="M 2598 4403 
C 2547 4512 2522 4512 2470 4512 
C 2394 4512 2387 4499 2342 4409 
L 269 109 
C 262 96 237 38 237 32 
C 237 6 243 0 358 0 
L 4576 0 
C 4691 0 4698 6 4698 32 
C 4698 38 4672 96 4666 109 
L 2598 4403 
z
M 2310 4038 
L 4083 358 
L 531 358 
L 2310 4038 
z
" transform="scale(0.015625)"/>
       <path id="CMMI12-74" d="M 1286 2566 
L 1875 2566 
C 1997 2566 2061 2566 2061 2681 
C 2061 2752 2022 2752 1894 2752 
L 1331 2752 
L 1568 3692 
C 1594 3781 1594 3794 1594 3840 
C 1594 3943 1510 4000 1427 4000 
C 1376 4000 1229 3981 1178 3775 
L 928 2752 
L 326 2752 
C 198 2752 141 2752 141 2630 
C 141 2566 186 2566 307 2566 
L 877 2566 
L 454 881 
C 403 658 384 594 384 511 
C 384 211 595 -64 954 -64 
C 1600 -64 1946 868 1946 912 
C 1946 951 1920 970 1882 970 
C 1869 970 1843 970 1830 944 
C 1824 938 1818 931 1773 829 
C 1638 511 1344 64 973 64 
C 781 64 768 224 768 364 
C 768 370 768 492 787 568 
L 1286 2566 
z
" transform="scale(0.015625)"/>
       <path id="CMSS17-5b" d="M 1613 -1600 
L 1613 -1212 
L 1062 -1212 
L 1062 4352 
L 1613 4352 
L 1613 4741 
L 595 4741 
L 595 -1600 
L 1613 -1600 
z
" transform="scale(0.015625)"/>
       <path id="CMSS17-6d" d="M 4288 1877 
C 4288 2308 4179 2816 3462 2816 
C 2982 2816 2694 2516 2566 2331 
C 2451 2670 2182 2816 1798 2816 
C 1363 2816 1088 2568 941 2389 
L 941 2758 
L 474 2758 
L 474 0 
L 960 0 
L 960 1559 
C 960 1939 1101 2428 1555 2428 
C 2138 2428 2138 2016 2138 1829 
L 2138 0 
L 2624 0 
L 2624 1559 
C 2624 1939 2765 2428 3219 2428 
C 3802 2428 3802 2016 3802 1829 
L 3802 0 
L 4288 0 
L 4288 1877 
z
" transform="scale(0.015625)"/>
       <path id="CMSS17-5d" d="M 1146 4741 
L 128 4741 
L 128 4352 
L 678 4352 
L 678 -1212 
L 128 -1212 
L 128 -1600 
L 1146 -1600 
L 1146 4741 
z
" transform="scale(0.015625)"/>
      </defs>
      <use xlink:href="#CMR17-1" transform="scale(0.996264)"/>
      <use xlink:href="#CMMI12-74" transform="translate(76.91959 0) scale(0.996264)"/>
      <use xlink:href="#CMSS17-5b" transform="translate(143.375033 0) scale(0.996264)"/>
      <use xlink:href="#CMSS17-6d" transform="translate(170.560471 0) scale(0.996264)"/>
      <use xlink:href="#CMSS17-73" transform="translate(244.789726 0) scale(0.996264)"/>
      <use xlink:href="#CMSS17-5d" transform="translate(280.703268 0) scale(0.996264)"/>
     </g>
    </g>
   </g>
   <g id="matplotlib.axis_4"/>
   <g id="patch_8">
    <path d="M 167.512222 304.981683 
L 167.512222 303.723521 
L 175.28817 303.723521 
L 175.28817 282.020229 
L 183.064119 282.020229 
L 183.064119 174.132851 
L 190.840068 174.132851 
L 190.840068 188.287171 
L 198.616016 188.287171 
L 198.616016 271.954935 
L 206.391965 271.954935 
L 206.391965 297.118172 
L 214.167913 297.118172 
L 214.167913 304.038062 
L 221.943862 304.038062 
L 221.943862 304.352602 
L 229.719811 304.352602 
L 229.719811 304.981683 
L 237.495759 304.981683 
L 237.495759 304.667143 
L 245.271708 304.667143 
L 245.271708 304.981683 
" clip-path="url(#pa3536777f6)" style="fill: none; stroke: #1b9e77; stroke-linejoin: miter"/>
   </g>
   <g id="line2d_23">
    <path d="M 338.677918 304.981683 
L 338.677918 165.040842 
" clip-path="url(#pa3536777f6)" style="fill: none; stroke: #1b9e77; stroke-width: 1.5; stroke-linecap: square"/>
   </g>
   <g id="patch_9">
    <path d="M 70.330158 304.981683 
L 70.330158 304.193684 
L 92.68315 304.193684 
L 92.68315 303.743398 
L 115.036142 303.743398 
L 115.036142 304.193684 
L 137.389134 304.193684 
L 137.389134 304.869112 
L 159.742126 304.869112 
L 159.742126 304.643969 
L 182.095119 304.643969 
L 182.095119 301.266828 
L 204.448111 301.266828 
L 204.448111 262.429703 
L 226.801103 262.429703 
L 226.801103 268.170843 
L 249.154095 268.170843 
L 249.154095 291.923404 
L 271.507087 291.923404 
L 271.507087 294.962831 
L 293.860079 294.962831 
L 293.860079 304.981683 
" clip-path="url(#pa3536777f6)" style="fill: none; stroke: #d95f02; stroke-linejoin: miter"/>
   </g>
   <g id="line2d_24">
    <path d="M 338.677918 304.981683 
L 338.677918 165.040842 
" clip-path="url(#pa3536777f6)" style="fill: none; stroke: #d95f02; stroke-width: 1.5; stroke-linecap: square"/>
   </g>
   <g id="patch_10">
    <path d="M 222.751317 304.981683 
L 222.751317 302.467023 
L 228.587137 302.467023 
L 228.587137 304.981683 
L 234.422956 304.981683 
L 234.422956 294.084822 
L 240.258775 294.084822 
L 240.258775 262.232459 
L 246.094595 262.232459 
L 246.094595 224.512556 
L 251.930414 224.512556 
L 251.930414 171.704691 
L 257.766234 171.704691 
L 257.766234 224.512556 
L 263.602053 224.512556 
L 263.602053 256.364919 
L 269.437872 256.364919 
L 269.437872 289.055502 
L 275.273692 289.055502 
L 275.273692 300.790583 
L 281.109511 300.790583 
L 281.109511 304.981683 
" clip-path="url(#pa3536777f6)" style="fill: none; stroke: #7570b3; stroke-linejoin: miter"/>
   </g>
   <g id="line2d_25">
    <path d="M 391.848291 304.981683 
L 391.848291 165.040842 
" clip-path="url(#pa3536777f6)" style="fill: none; stroke: #7570b3; stroke-width: 1.5; stroke-linecap: square"/>
   </g>
   <g id="line2d_26">
    <path d="M 19.655677 304.981683 
L 19.655677 165.040842 
" clip-path="url(#pa3536777f6)" style="fill: none; stroke: #000000; stroke-width: 1.5; stroke-linecap: square"/>
   </g>
   <g id="patch_11">
    <path d="M 19.655677 304.981683 
L 445.018665 304.981683 
" style="fill: none; stroke: #000000; stroke-width: 0.8; stroke-linejoin: miter; stroke-linecap: square"/>
   </g>
   <g id="text_15">
    <!-- closing pulse -->
    <g transform="translate(17.718498 224.397109) rotate(-90) scale(0.1 -0.1)">
     <defs>
      <path id="CMSS17-63" d="M 2464 2541 
C 2464 2585 2170 2714 2093 2739 
C 1882 2816 1613 2816 1542 2816 
C 710 2816 211 2093 211 1363 
C 211 595 768 -64 1517 -64 
C 1946 -64 2253 76 2502 242 
L 2464 664 
C 2189 453 1869 337 1523 337 
C 1024 337 698 774 698 1369 
C 698 1831 909 2414 1549 2414 
C 1901 2414 2099 2343 2394 2145 
L 2464 2541 
z
" transform="scale(0.015625)"/>
     </defs>
     <use xlink:href="#CMSS17-63" transform="scale(0.996264)"/>
     <use xlink:href="#CMSS17-6c" transform="translate(41.638822 0) scale(0.996264)"/>
     <use xlink:href="#CMSS17-6f" transform="translate(63.819545 0) scale(0.996264)"/>
     <use xlink:href="#CMSS17-73" transform="translate(110.663169 0) scale(0.996264)"/>
     <use xlink:href="#CMSS17-69" transform="translate(146.576711 0) scale(0.996264)"/>
     <use xlink:href="#CMSS17-6e" transform="translate(168.757434 0) scale(0.996264)"/>
     <use xlink:href="#CMSS17-67" transform="translate(216.962377 0) scale(0.996264)"/>
     <use xlink:href="#CMSS17-70" transform="translate(295.035113 0) scale(0.996264)"/>
     <use xlink:href="#CMSS17-75" transform="translate(343.240056 0) scale(0.996264)"/>
     <use xlink:href="#CMSS17-6c" transform="translate(391.444999 0) scale(0.996264)"/>
     <use xlink:href="#CMSS17-73" transform="translate(413.625722 0) scale(0.996264)"/>
     <use xlink:href="#CMSS17-65" transform="translate(449.539264 0) scale(0.996264)"/>
    </g>
   </g>
   <g id="legend_1">
    <g id="patch_12">
     <path d="M 28.655677 181.040842 
L 48.655677 181.040842 
L 48.655677 174.040842 
L 28.655677 174.040842 
L 28.655677 181.040842 
z
" style="fill: none; stroke: #1b9e77; stroke-linejoin: miter"/>
    </g>
    <g id="text_16">
     <!-- SHB05@30ms -->
     <g transform="translate(56.655677 181.040842) scale(0.1 -0.1)">
      <defs>
       <path id="CMSS17-53" d="M 2797 4169 
C 2515 4334 2208 4480 1690 4480 
C 864 4480 333 3879 333 3266 
C 333 3025 403 2753 653 2475 
C 902 2196 1184 2121 1542 2033 
C 1690 1994 1939 1924 1984 1906 
C 2342 1767 2515 1444 2515 1140 
C 2515 742 2202 318 1645 318 
C 1453 318 890 318 358 819 
L 269 318 
C 794 -64 1363 -128 1651 -128 
C 2438 -128 3002 488 3002 1186 
C 3002 1440 2925 1763 2656 2061 
C 2394 2347 2163 2410 1638 2549 
C 1338 2626 1146 2677 986 2873 
C 877 3013 819 3146 819 3317 
C 819 3673 1126 4060 1690 4060 
C 1971 4060 2336 4002 2707 3660 
L 2797 4169 
z
" transform="scale(0.015625)"/>
       <path id="CMSS17-48" d="M 3674 4416 
L 3136 4416 
L 3136 2501 
L 1101 2501 
L 1101 4416 
L 563 4416 
L 563 0 
L 1101 0 
L 1101 2112 
L 3136 2112 
L 3136 0 
L 3674 0 
L 3674 4416 
z
" transform="scale(0.015625)"/>
       <path id="CMSS17-42" d="M 570 4416 
L 570 0 
L 2163 0 
C 3034 0 3667 574 3667 1200 
C 3667 1685 3251 2176 2502 2317 
C 3334 2558 3501 3040 3501 3313 
C 3501 3883 2874 4416 1997 4416 
L 570 4416 
z
M 1088 2496 
L 1088 4059 
L 1824 4059 
C 2483 4059 3002 3724 3002 3306 
C 3002 2926 2592 2496 1766 2496 
L 1088 2496 
z
M 1088 357 
L 1088 2107 
L 1939 2107 
C 2630 2107 3162 1679 3162 1206 
C 3162 772 2694 357 1984 357 
L 1088 357 
z
" transform="scale(0.015625)"/>
       <path id="CMSS17-30" d="M 2758 2044 
C 2758 2405 2752 3077 2490 3596 
C 2227 4096 1805 4229 1504 4229 
C 1069 4229 698 3975 506 3570 
C 301 3146 243 2709 243 2044 
C 243 1589 262 1031 493 543 
C 755 5 1197 -128 1498 -128 
C 1894 -128 2278 81 2496 518 
C 2720 974 2758 1474 2758 2044 
z
M 1498 261 
C 1011 261 864 811 819 995 
C 742 1310 730 1614 730 2114 
C 730 2506 730 2948 851 3297 
C 998 3701 1254 3840 1498 3840 
C 1971 3840 2125 3372 2176 3208 
C 2272 2873 2272 2481 2272 2114 
C 2272 1526 2272 261 1498 261 
z
" transform="scale(0.015625)"/>
       <path id="CMSS17-35" d="M 934 3752 
L 2502 3752 
L 2502 4160 
L 467 4160 
L 467 1781 
L 896 1781 
C 1011 2046 1248 2240 1555 2240 
C 1843 2240 2163 1989 2163 1266 
C 2163 493 1709 267 1376 267 
C 966 267 589 512 422 851 
L 218 499 
C 512 49 992 -128 1376 -128 
C 2118 -128 2701 497 2701 1253 
C 2701 2030 2182 2629 1562 2629 
C 1338 2629 1120 2553 934 2399 
L 934 3752 
z
" transform="scale(0.015625)"/>
       <path id="CMSS17-40" d="M 3366 541 
C 3270 541 3258 541 3194 509 
C 2925 388 2643 325 2349 325 
C 1491 325 819 1171 819 2208 
C 819 3317 1555 4092 2323 4092 
C 2566 4092 2867 3963 3027 3508 
C 2874 3597 2714 3648 2547 3648 
C 1958 3648 1427 3039 1427 2206 
C 1427 1372 1965 763 2547 763 
C 2931 763 3667 1103 3667 2308 
C 3667 2839 3667 4480 2323 4480 
C 1293 4480 333 3527 333 2208 
C 333 916 1261 -64 2336 -64 
C 3027 -64 3494 331 3667 541 
L 3366 541 
z
M 2547 1152 
C 2208 1152 1914 1602 1914 2206 
C 1914 2809 2208 3259 2547 3259 
C 2886 3259 3181 2809 3181 2206 
C 3181 1602 2886 1152 2547 1152 
z
" transform="scale(0.015625)"/>
       <path id="CMSS17-33" d="M 1005 2025 
L 1440 2025 
C 2042 2025 2214 1507 2214 1146 
C 2214 653 1933 267 1472 267 
C 1114 267 608 444 320 912 
C 275 691 275 678 250 526 
C 550 88 1037 -128 1485 -128 
C 2214 -128 2752 473 2752 1138 
C 2752 1638 2400 2057 1920 2215 
C 2304 2424 2586 2816 2586 3273 
C 2586 3805 2093 4229 1491 4229 
C 941 4229 512 3892 333 3530 
C 378 3468 493 3284 550 3189 
C 691 3562 1056 3840 1485 3840 
C 1843 3840 2080 3607 2080 3271 
C 2080 2923 1856 2543 1478 2455 
C 1453 2455 1056 2417 1005 2411 
L 1005 2025 
z
" transform="scale(0.015625)"/>
      </defs>
      <use xlink:href="#CMSS17-53" transform="scale(0.996264)"/>
      <use xlink:href="#CMSS17-48" transform="translate(52.048516 0) scale(0.996264)"/>
      <use xlink:href="#CMSS17-42" transform="translate(118.110035 0) scale(0.996264)"/>
      <use xlink:href="#CMSS17-30" transform="translate(180.448076 0) scale(0.996264)"/>
      <use xlink:href="#CMSS17-35" transform="translate(227.291699 0) scale(0.996264)"/>
      <use xlink:href="#CMSS17-40" transform="translate(274.135323 0) scale(0.996264)"/>
      <use xlink:href="#CMSS17-33" transform="translate(336.593548 0) scale(0.996264)"/>
      <use xlink:href="#CMSS17-30" transform="translate(383.437172 0) scale(0.996264)"/>
      <use xlink:href="#CMSS17-6d" transform="translate(430.280795 0) scale(0.996264)"/>
      <use xlink:href="#CMSS17-73" transform="translate(504.51005 0) scale(0.996264)"/>
     </g>
    </g>
    <g id="patch_13">
     <path d="M 28.655677 194.97802 
L 48.655677 194.97802 
L 48.655677 187.97802 
L 28.655677 187.97802 
L 28.655677 194.97802 
z
" style="fill: none; stroke: #d95f02; stroke-linejoin: miter"/>
    </g>
    <g id="text_17">
     <!-- SHB1T@30ms -->
     <g transform="translate(56.655677 194.97802) scale(0.1 -0.1)">
      <defs>
       <path id="CMSS17-31" d="M 1818 4288 
L 1696 4288 
C 1350 3940 947 3890 538 3890 
L 538 3520 
C 723 3520 1024 3520 1325 3667 
L 1325 369 
L 570 369 
L 570 0 
L 2573 0 
L 2573 369 
L 1818 369 
L 1818 4288 
z
" transform="scale(0.015625)"/>
       <path id="CMSS17-54" d="M 2317 3968 
L 2848 3968 
C 2925 3968 3002 3968 3078 3968 
L 3878 3968 
L 3878 4376 
L 218 4376 
L 218 3968 
L 1018 3968 
C 1094 3968 1171 3968 1248 3968 
L 1779 3968 
L 1779 -32 
L 2317 -32 
L 2317 3968 
z
" transform="scale(0.015625)"/>
      </defs>
      <use xlink:href="#CMSS17-53" transform="scale(0.996264)"/>
      <use xlink:href="#CMSS17-48" transform="translate(52.048516 0) scale(0.996264)"/>
      <use xlink:href="#CMSS17-42" transform="translate(118.110035 0) scale(0.996264)"/>
      <use xlink:href="#CMSS17-31" transform="translate(180.448076 0) scale(0.996264)"/>
      <use xlink:href="#CMSS17-54" transform="translate(227.291699 0) scale(0.996264)"/>
      <use xlink:href="#CMSS17-40" transform="translate(291.111153 0) scale(0.996264)"/>
      <use xlink:href="#CMSS17-33" transform="translate(353.569379 0) scale(0.996264)"/>
      <use xlink:href="#CMSS17-30" transform="translate(400.413002 0) scale(0.996264)"/>
      <use xlink:href="#CMSS17-6d" transform="translate(447.256626 0) scale(0.996264)"/>
      <use xlink:href="#CMSS17-73" transform="translate(521.48588 0) scale(0.996264)"/>
     </g>
    </g>
    <g id="patch_14">
     <path d="M 28.655677 208.915198 
L 48.655677 208.915198 
L 48.655677 201.915198 
L 28.655677 201.915198 
L 28.655677 208.915198 
z
" style="fill: none; stroke: #7570b3; stroke-linejoin: miter"/>
    </g>
    <g id="text_18">
     <!-- SHB1T@35ms -->
     <g transform="translate(56.655677 208.915198) scale(0.1 -0.1)">
      <use xlink:href="#CMSS17-53" transform="scale(0.996264)"/>
      <use xlink:href="#CMSS17-48" transform="translate(52.048516 0) scale(0.996264)"/>
      <use xlink:href="#CMSS17-42" transform="translate(118.110035 0) scale(0.996264)"/>
      <use xlink:href="#CMSS17-31" transform="translate(180.448076 0) scale(0.996264)"/>
      <use xlink:href="#CMSS17-54" transform="translate(227.291699 0) scale(0.996264)"/>
      <use xlink:href="#CMSS17-40" transform="translate(291.111153 0) scale(0.996264)"/>
      <use xlink:href="#CMSS17-33" transform="translate(353.569379 0) scale(0.996264)"/>
      <use xlink:href="#CMSS17-35" transform="translate(400.413002 0) scale(0.996264)"/>
      <use xlink:href="#CMSS17-6d" transform="translate(447.256626 0) scale(0.996264)"/>
      <use xlink:href="#CMSS17-73" transform="translate(521.48588 0) scale(0.996264)"/>
     </g>
    </g>
   </g>
  </g>
 </g>
 <defs>
  <clipPath id="pa2b9eb84ff">
   <rect x="19.655677" y="10.8" width="425.362988" height="139.940842"/>
  </clipPath>
  <clipPath id="pa3536777f6">
   <rect x="19.655677" y="165.040842" width="425.362988" height="139.940842"/>
  </clipPath>
 </defs>
</svg>
